<svg height="480pt" viewBox="0 0 480 480.00547" width="480pt" xmlns="http://www.w3.org/2000/svg"><path d="m384.003906 240.003906c0-79.398437-64.601562-144-144-144-79.402344 0-144 64.601563-144 144 0 79.402344 64.597656 144 144 144 79.398438 0 144-64.597656 144-144zm-272 0c0-70.574218 57.421875-128 128-128 70.574219 0 128 57.425782 128 128 0 70.578125-57.425781 128-128 128-70.578125 0-128-57.421875-128-128zm0 0"/><path d="m328.652344 203.085938 14.765625-6.160157c-8.917969-21.398437-24.03125-39.273437-43.6875-51.6875l-8.542969 13.527344c16.855469 10.65625 29.808594 25.976563 37.464844 44.320313zm0 0"/><path d="m283.082031 136.589844c-8.277343-3.457032-16.984375-5.894532-25.855469-7.265625l-2.441406 15.816406c7.609375 1.167969 15.050782 3.265625 22.144532 6.21875zm0 0"/><path d="m32.003906 171.316406v284.6875c0 13.234375 10.765625 24 24 24 13.230469 0 24-10.765625 24-24v-284.6875l29.65625-29.65625c1.503906-1.496094 2.34375-3.527344 2.34375-5.65625v-112c0-13.230468-10.769531-23.99999975-24-23.99999975-6.167968 0-11.746094 2.41015575-16 6.24218775-4.257812-3.832032-9.832031-6.24218775-16-6.24218775-6.167968 0-11.746094 2.41015575-16 6.24218775-4.257812-3.832032-9.832031-6.24218775-16-6.24218775-13.234375 0-23.99999975 10.76953175-23.99999975 23.99999975v112c0 2.128906.83984375 4.160156 2.34374975 5.65625zm-16-147.3125c0-4.414062 3.589844-8 8-8 4.40625 0 8 3.585938 8 8v96h16v-96c0-4.414062 3.589844-8 8-8 4.40625 0 8 3.585938 8 8v96h16v-96c0-4.414062 3.589844-8 8-8 4.40625 0 8 3.585938 8 8v108.691406l-29.65625 29.652344c-1.503906 1.496094-2.34375 3.53125-2.34375 5.65625v288c0 4.417969-3.59375 8-8 8-4.410156 0-8-3.582031-8-8v-288c0-2.125-.839844-4.160156-2.34375-5.65625l-29.65625-29.652344zm0 0"/><path d="m480.003906 8.003906c0-2.773437-1.441406-5.34375-3.792968-6.804687-2.359376-1.472657-5.304688-1.585938-7.785157-.355469-42.207031 21.105469-68.421875 63.53125-68.421875 110.714844v120.445312c0 2.128906.839844 4.160156 2.34375 5.65625l29.65625 29.65625v204.6875c0 4.425782 3.582032 8 8 8h32c4.414063 0 8-3.574218 8-8zm-16 456h-16v-200c0-2.125-.839844-4.160156-2.34375-5.65625l-29.65625-29.652344v-117.136718c0-36.578125 18.09375-69.875 48-89.707032zm0 0"/><path d="m240.003906 304.003906c2.175782 0 4.253906-.878906 5.765625-2.453125l48.472657-50.386719c12.960937-13.488281 12.960937-35.414062 0-48.878906-6.382813-6.632812-14.878907-10.28125-23.945313-10.28125-9.0625 0-17.566406 3.648438-23.941406 10.28125l-6.351563 6.601563-6.351562-6.601563c-6.378906-6.632812-14.882813-10.28125-23.945313-10.28125s-17.558593 3.648438-23.945312 10.28125c-12.957031 13.472656-12.957031 35.398438 0 48.878906l48.472656 50.386719c1.511719 1.574219 3.59375 2.453125 5.769531 2.453125zm-42.707031-90.621094c3.328125-3.472656 7.738281-5.378906 12.410156-5.378906s9.078125 1.90625 12.414063 5.378906l12.121094 12.589844c3.015624 3.144532 8.511718 3.144532 11.527343 0l12.121094-12.589844c6.664063-6.929687 18.167969-6.9375 24.824219 0 7.078125 7.359376 7.078125 19.335938 0 26.695313l-42.710938 44.390625-42.707031-44.390625c-7.078125-7.359375-7.078125-19.335937 0-26.695313zm0 0"/><path d="m232.003906 320.003906h16v16h-16zm0 0"/><path d="m264.003906 320.003906h16v16h-16zm0 0"/><path d="m200.003906 320.003906h16v16h-16zm0 0"/></svg>