<?xml version="1.0" encoding="iso-8859-1"?>
<!-- Generator: Adobe Illustrator 19.0.0, SVG Export Plug-In . SVG Version: 6.00 Build 0)  -->
<svg version="1.1" id="Capa_1" xmlns="http://www.w3.org/2000/svg" xmlns:xlink="http://www.w3.org/1999/xlink" x="0px" y="0px"
	 viewBox="0 0 512 512" style="enable-background:new 0 0 512 512;" xml:space="preserve">
<path style="fill:#B6EFAB;" d="M328.161,208.889c-2.273,25.356-23.854,56.356-77.222,60.257l-1.09-14.959l-30.744,16.685
	L188.466,287.5l11.947,9.073c-20.28,26.717-42.697,37.166-62.139,38.29c-11.558,0.674-22.066-1.947-30.458-6.394
	c-21.269-11.266-32.093-34.231-28.676-58.5c-16.6-13.185-22.212-36.874-18.67-56.767c3.571-19.965,15.511-34.768,32.047-41.04
	c-0.762-9.976,0.931-19.824,5.082-29.078c5.518-12.3,15.41-23.234,27.861-30.778c2.037-1.237,4.1-2.362,6.175-3.381
	c20.272-9.961,42.302-9.869,58.835-0.216c22.161-15.595,47.244-18.436,69.01-7.303c19.724,10.089,32.944,30.146,34.881,51.387
	C316.786,163.082,330.308,184.794,328.161,208.889z"/>
<path style="fill:#83E46F;" d="M328.161,208.889c-2.273,25.356-23.854,56.356-77.222,60.257l-1.09-14.959l-30.744,16.685
	l-87.47-161.948c20.272-9.961,42.302-9.869,58.835-0.216c22.161-15.595,47.244-18.436,69.01-7.303
	c19.724,10.089,32.944,30.146,34.881,51.387C316.786,163.082,330.308,184.794,328.161,208.889z"/>
<path style="fill:#00AD00;" d="M286.186,330.428l-54.068,29.203c0,0-42.704-84.326-90.194-93.341l14.085-28.633
	c0,0,32.671,1.675,58.956,25.552c-5.564-35.069,10.949-63.309,10.949-63.309l31.668,3.922
	C239.083,248.477,286.186,330.428,286.186,330.428z"/>
<path style="fill:#009100;" d="M286.186,330.428l-27.029,14.599l-44.191-81.819c-5.564-35.069,10.949-63.309,10.949-63.309
	l31.668,3.922C239.083,248.477,286.186,330.428,286.186,330.428z"/>
<path style="fill:#6BCD00;" d="M448.914,254.647c-2.77,14.96-7.05,28.67-12.71,40.74c-7.66,16.32-17.89,29.74-30.4,39.88
	c-20.92,16.95-48.74,25.54-82.7,25.54c-27.02,0-48.43-5.55-50.79-6.18l-3.31-0.89l-17.68-4.76l-1.01-18.71l-0.16-2.99
	c-0.12-2.15-1.01-21.72,3.48-45.96c2.77-14.96,7.05-28.67,12.71-40.74c7.66-16.32,17.89-29.74,30.4-39.88
	c20.91-16.95,48.74-25.54,82.7-25.54c27.02,0,48.43,5.55,50.78,6.18l21,5.65l1.17,21.7
	C452.514,210.837,453.404,230.407,448.914,254.647z"/>
<polygon style="fill:#D4FE9A;" points="384.594,260.287 269.004,353.737 251.324,348.977 250.314,330.267 365.704,236.977 
	375.154,248.637 "/>
<path style="fill:#5EAD00;" d="M448.914,254.647c-2.77,14.96-7.05,28.67-12.71,40.74c-7.66,16.32-17.89,29.74-30.4,39.88
	c-20.92,16.95-48.74,25.54-82.7,25.54c-27.02,0-48.43-5.55-50.79-6.18l-3.31-0.89l-17.68-4.76l199.9-161.99l1.17,21.7
	C452.514,210.837,453.404,230.407,448.914,254.647z"/>
<polygon style="fill:#B7FB4C;" points="384.594,260.287 269.004,353.737 251.324,348.977 375.154,248.637 "/>
<polygon style="fill:#C8C6CD;" points="499.54,323.327 395.26,417.327 116.74,417.327 12.46,323.327 "/>
<polygon style="fill:#AEADB3;" points="499.54,323.327 395.26,417.327 256,417.327 256,323.327 "/>
<rect y="323.33" style="fill:#D9D9DB;" width="512" height="30"/>
<rect x="256" y="323.33" style="fill:#C8C6CD;" width="256" height="30"/>
<g>
</g>
<g>
</g>
<g>
</g>
<g>
</g>
<g>
</g>
<g>
</g>
<g>
</g>
<g>
</g>
<g>
</g>
<g>
</g>
<g>
</g>
<g>
</g>
<g>
</g>
<g>
</g>
<g>
</g>
</svg>
